<svg width="32" height="32" viewBox="0 0 32 32" fill="none" xmlns="http://www.w3.org/2000/svg">
<g clip-path="url(#clip0_412_573)">
<path d="M14 28C12.2166 26.4093 10.9535 24.3186 10.375 22" stroke="#008053" stroke-width="2" stroke-linecap="round" stroke-linejoin="round"/>
<path d="M24 19C24 22.9587 25.6638 26.375 29 28H7.62501C5.29657 25.5827 3.99701 22.3562 4.00001 19C4.00001 15.4737 5.40376 12.6387 7.68376 10.295C7.82204 10.1547 7.99866 10.0584 8.19146 10.0182C8.38426 9.97792 8.58466 9.9955 8.76751 10.0687L11.94 11.3537C12.1847 11.4514 12.4463 11.4997 12.7097 11.496C12.9731 11.4923 13.2332 11.4366 13.475 11.332C13.7169 11.2275 13.9357 11.0762 14.1189 10.8869C14.302 10.6975 14.446 10.4739 14.5425 10.2287L17.1675 3.58996C17.6863 2.33996 19.1013 1.67496 20.3713 2.14871C20.6863 2.26579 20.9744 2.44517 21.2185 2.67613C21.4626 2.9071 21.6576 3.1849 21.7919 3.49295C21.9262 3.80099 21.9971 4.13295 22.0002 4.46899C22.0033 4.80502 21.9386 5.13823 21.81 5.44871L19.1413 12.0862C18.9458 12.5784 18.9536 13.128 19.1629 13.6145C19.3721 14.101 19.7658 14.4846 20.2575 14.6812L23.375 15.9112C23.5599 15.986 23.7183 16.1144 23.8296 16.2799C23.941 16.4454 24.0003 16.6405 24 16.84V19Z" stroke="#008053" stroke-width="2" stroke-linecap="round" stroke-linejoin="round"/>
<path d="M5.49121 13.1963L24.1 20.64" stroke="#008053" stroke-width="2" stroke-linecap="round" stroke-linejoin="round"/>
</g>
<defs>
<clipPath id="clip0_412_573">
<rect width="32" height="32" fill="white"/>
</clipPath>
</defs>
</svg>
