<svg width="24" height="24" viewBox="0 0 24 24" fill="none" xmlns="http://www.w3.org/2000/svg">
<g clip-path="url(#clip0_502_3094)">
<path d="M7.5 18.8316C7.30866 19.0392 7.07692 19.2056 6.81899 19.3206C6.56105 19.4355 6.28236 19.4966 6 19.5C4.75687 19.5 3.75 18.3244 3.75 16.875C3.75 15.4256 4.75687 14.25 6 14.25C6.28236 14.2534 6.56105 14.3145 6.81899 14.4294C7.07692 14.5444 7.30866 14.7108 7.5 14.9184" stroke="#00A77E" stroke-width="1.5" stroke-linecap="round" stroke-linejoin="round"/>
<path d="M13.1156 14.3998C13.1156 14.3998 10.3566 13.6704 10.1344 15.431C9.9122 17.1916 13.7372 16.3798 13.4888 18.311C13.2572 20.1073 10.5094 19.3423 10.5094 19.3423" stroke="#00A77E" stroke-width="1.5" stroke-linecap="round" stroke-linejoin="round"/>
<path d="M4.5 10.5V3.75C4.5 3.55109 4.57902 3.36032 4.71967 3.21967C4.86032 3.07902 5.05109 3 5.25 3H14.25L19.5 8.25V10.5" stroke="#00A77E" stroke-width="1.5" stroke-linecap="round" stroke-linejoin="round"/>
<path d="M14.25 3V8.25H19.5" stroke="#00A77E" stroke-width="1.5" stroke-linecap="round" stroke-linejoin="round"/>
<path d="M15.75 14.25L17.625 19.5L19.5 14.25" stroke="#00A77E" stroke-width="1.5" stroke-linecap="round" stroke-linejoin="round"/>
</g>
<defs>
<clipPath id="clip0_502_3094">
<rect width="24" height="24" fill="white"/>
</clipPath>
</defs>
</svg>
