<svg width="20" height="20" viewBox="0 0 20 20" fill="none" xmlns="http://www.w3.org/2000/svg">
<g clip-path="url(#clip0_493_1432)">
<path d="M7.5 16.875H3.75C3.58424 16.875 3.42527 16.8091 3.30806 16.6919C3.19085 16.5747 3.125 16.4158 3.125 16.25V12.7586C3.12508 12.593 3.19082 12.4343 3.30781 12.3172L12.9422 2.68281C13.0594 2.56568 13.2183 2.49989 13.384 2.49989C13.5497 2.49989 13.7086 2.56568 13.8258 2.68281L17.3172 6.17187C17.4343 6.28907 17.5001 6.44798 17.5001 6.61367C17.5001 6.77936 17.4343 6.93826 17.3172 7.05546L7.5 16.875Z" stroke="#9A9A9A" stroke-width="1.5" stroke-linecap="round" stroke-linejoin="round"/>
<path d="M16.875 16.875H7.5" stroke="#9A9A9A" stroke-width="1.5" stroke-linecap="round" stroke-linejoin="round"/>
<path d="M10.625 5L15 9.375" stroke="#9A9A9A" stroke-width="1.5" stroke-linecap="round" stroke-linejoin="round"/>
</g>
<defs>
<clipPath id="clip0_493_1432">
<rect width="20" height="20" fill="white"/>
</clipPath>
</defs>
</svg>
