<svg width="32" height="32" viewBox="0 0 32 32" fill="none" xmlns="http://www.w3.org/2000/svg">
<g clip-path="url(#clip0_542_2800)">
<path d="M19.9774 19.9774L16.9349 28.3449C16.8639 28.5363 16.736 28.7014 16.5684 28.8179C16.4008 28.9345 16.2016 28.997 15.9974 28.997C15.7933 28.997 15.5941 28.9345 15.4265 28.8179C15.2589 28.7014 15.131 28.5363 15.0599 28.3449L12.0224 19.9774L3.65494 16.9349C3.46357 16.8639 3.29851 16.736 3.18196 16.5684C3.0654 16.4008 3.00293 16.2016 3.00293 15.9974C3.00293 15.7933 3.0654 15.5941 3.18196 15.4265C3.29851 15.2589 3.46357 15.131 3.65494 15.0599L12.0224 12.0224L15.0649 3.65494C15.136 3.46357 15.2639 3.29851 15.4315 3.18196C15.5991 3.0654 15.7983 3.00293 16.0024 3.00293C16.2066 3.00293 16.4058 3.0654 16.5734 3.18196C16.741 3.29851 16.8689 3.46357 16.9399 3.65494L19.9824 12.0224L28.3499 15.0649C28.5413 15.136 28.7064 15.2639 28.8229 15.4315C28.9395 15.5991 29.002 15.7983 29.002 16.0024C29.002 16.2066 28.9395 16.4058 28.8229 16.5734C28.7064 16.741 28.5413 16.8689 28.3499 16.9399L19.9774 19.9774Z" stroke="#008053" stroke-width="2" stroke-linecap="round" stroke-linejoin="round"/>
</g>
<defs>
<clipPath id="clip0_542_2800">
<rect width="32" height="32" fill="white"/>
</clipPath>
</defs>
</svg>
