<svg width="155" height="85" viewBox="0 0 155 85" fill="none" xmlns="http://www.w3.org/2000/svg">
<path d="M100.4 31.2211C99.8852 31.2229 99.4075 31.3321 99.0538 31.5276C98.6015 31.7782 98.354 32.1735 98.3558 32.64L98.4061 46.9219L91.4187 33.4118C90.5631 31.7851 89.8558 31.2633 88.4877 31.2633C88.1123 31.2645 87.5719 31.3197 87.1258 31.576C86.6773 31.8334 86.4421 32.2268 86.4434 32.7151L86.5215 54.8952C86.5246 55.8389 87.5515 56.3328 88.564 56.3328H88.5758C89.7807 56.3284 90.6208 55.7316 90.6189 54.8809L90.568 40.5748L98.13 54.8481C98.635 55.7787 99.4689 56.2906 100.488 56.2906C101.694 56.2862 102.534 55.6894 102.531 54.8387L102.453 32.6251C102.449 31.772 101.648 31.2211 100.4 31.2211Z" fill="#FFFFFF"/>
<path d="M112.632 56.4495C114.967 56.4414 116.829 55.8389 118.164 54.6601C119.674 53.328 120.434 51.3116 120.425 48.6685L120.391 38.904C120.373 33.9219 117.603 31.1783 112.543 31.1783C110.198 31.1864 108.338 31.7888 107.014 32.9689C105.525 34.296 104.774 36.3112 104.784 38.9599L104.818 48.7244C104.836 53.7059 107.594 56.4495 112.584 56.4495H112.632ZM112.577 34.6038L112.578 34.873C115.034 34.873 116.284 36.2343 116.293 38.9189L116.327 48.6834C116.333 50.049 116.003 51.0876 115.349 51.7707C114.727 52.4197 113.809 52.7504 112.594 52.7541C110.163 52.7541 108.925 51.3935 108.916 48.7095L108.882 38.945C108.877 37.5713 109.196 36.5321 109.832 35.8552C110.441 35.2081 111.357 34.8774 112.556 34.873L112.577 34.6038Z" fill="#FFFFFF"/>
<path d="M139.358 32.8311C139.355 31.8365 138.027 31.0932 136.833 31.0932C136.075 31.0957 135.556 31.427 135.369 32.0326L130.189 50.2772L124.846 32.0642C124.714 31.6429 124.348 31.1404 123.344 31.1404C122.306 31.1441 120.862 31.8142 120.866 32.8956C120.866 33.0104 120.866 33.1413 120.913 33.2778L127.702 55.0037C127.985 55.8444 128.965 56.3879 130.198 56.3879H130.212C131.179 56.3848 132.414 56.0132 132.713 54.9795L139.282 33.2077C139.318 33.0972 139.358 32.9725 139.358 32.8311Z" fill="#FFFFFF"/>
<path d="M154.92 53.9713L148.198 32.2441C147.915 31.4041 146.922 30.8606 145.655 30.8606C144.416 30.8649 143.435 31.4152 143.153 32.2683L136.553 54.0321C136.509 54.173 136.509 54.302 136.509 54.4174C136.513 55.4418 137.82 56.1553 138.99 56.1553H138.999C139.999 56.1522 140.365 55.6459 140.498 55.2165L141.801 50.642L149.681 50.6147L151.019 55.1855C151.206 55.7805 151.725 56.1075 152.488 56.1075C153.038 56.1056 153.651 55.9307 154.129 55.6397C154.693 55.2953 155.002 54.8381 155 54.3529C155 54.2059 154.954 54.0718 154.92 53.9713ZM142.718 47.2464L145.677 36.962L148.709 47.2253L142.718 47.2464Z" fill="#FFFFFF"/>
<path d="M95.4044 72.1344C98.0177 71.7168 100.939 70.1943 100.921 65.4696C100.907 61.1445 98.3441 58.7627 93.6567 58.7627L87.9821 58.7837C87.4783 58.8309 87.1284 59.1796 87.1309 59.6307L87.2128 83.1807C87.2146 83.7565 87.6564 84.0574 88.0919 84.0574H88.095C88.3358 84.0568 88.5666 83.9637 88.7273 83.8018C88.888 83.6404 88.9723 83.4233 88.9711 83.1745L88.9326 72.2789L93.5053 72.2628L98.8795 82.6508L98.9819 82.8636C99.2257 83.3768 99.5291 84.0152 100.107 84.0152C100.593 84.0127 100.985 83.6169 100.983 83.1335C100.983 82.9834 100.937 82.8078 100.851 82.6372L95.4044 72.1344ZM93.7038 60.2517V60.521C97.3142 60.521 99.1513 62.1881 99.1624 65.4764C99.1773 69.6148 96.1992 70.4946 93.6982 70.5039L88.927 70.52L88.8917 60.5377L93.6641 60.521L93.7038 60.2517Z" fill="#FFFFFF"/>
<path d="M103.874 58.7264C103.65 58.727 103.441 58.7977 103.286 58.9249C103.154 59.0329 102.997 59.2333 102.999 59.5745L103.081 83.1252C103.083 83.7003 103.525 84.0012 103.96 84.0012H103.964C104.19 84.0006 104.402 83.9212 104.561 83.7785C104.741 83.6165 104.84 83.382 104.839 83.1183L104.757 59.5689C104.756 59.0726 104.394 58.7264 103.874 58.7264Z" fill="#FFFFFF"/>
<path d="M114.568 58.6868C110.139 58.7023 107.709 61.2821 107.725 65.9509L107.764 76.9482C107.781 81.6021 110.215 84.1646 114.619 84.1646H114.658C116.725 84.1577 118.37 83.595 119.548 82.4931C120.876 81.2516 121.544 79.3692 121.535 76.8992L121.496 65.9025C121.48 61.2492 119.034 58.6868 114.568 58.6868ZM109.523 76.942L109.484 65.9447C109.471 62.3077 111.184 60.4569 114.575 60.4451L114.606 60.1759V60.4451C117.999 60.4451 119.725 62.2835 119.737 65.9087L119.776 76.906C119.789 80.5437 118.065 82.3944 114.621 82.4062C111.25 82.4062 109.535 80.5679 109.523 76.942Z" fill="#FFFFFF"/>
<path d="M69.7585 47.2593C69.5723 45.5779 69.318 43.9083 69.0729 42.2542C68.7658 40.6094 68.4853 38.964 68.0461 37.3713C67.242 34.1711 66.1171 31.0931 64.5871 28.3483C63.0354 25.6345 61.1189 23.1881 58.737 21.5278C56.3905 19.8364 53.7263 18.7141 50.9443 18.3722C48.1709 17.9621 45.3212 18.173 42.5361 18.8009C39.7391 19.399 37.0148 20.4767 34.368 21.7728C29.08 24.4246 24.1959 28.159 19.6133 32.3904C23.6071 27.4263 28.3373 23.144 33.6842 20.0741C36.3496 18.5224 39.1925 17.3454 42.1365 16.576C45.0848 15.839 48.1566 15.5821 51.2048 15.9928C54.2481 16.416 57.2337 17.6693 59.8103 19.6305C62.3945 21.5948 64.4717 24.3415 65.9676 27.376C67.4871 30.4106 68.4407 33.7362 69.0326 37.0915C69.3372 38.7717 69.5022 40.4729 69.6412 42.1667L69.751 44.7161C69.7759 45.5642 69.7548 46.4124 69.7585 47.2593Z" fill="#00A77E"/>
<path d="M110.883 21.4926C107.195 19.6691 103.755 18.7943 99.894 17.9927C96.0442 17.2109 92.0442 17.1786 88.3085 18.3817C84.5586 19.509 81.1778 21.9498 78.5732 25.2047C75.9699 28.4793 73.9454 31.6969 72.666 35.9209C73.5446 31.5747 75.1484 27.3048 77.748 23.7919C79.0355 22.0342 80.5748 20.5017 82.2729 19.2373C83.9754 17.9741 85.8696 17.0502 87.8283 16.4248C89.7933 15.8224 91.8264 15.5035 93.8547 15.5084C95.8823 15.5183 97.9024 15.7715 99.8667 16.2753C103.806 17.2562 107.511 19.1281 110.883 21.4926Z" fill="#00A77E"/>
<path d="M122.036 25.7225C119.735 23.322 117.301 21.107 114.776 19.049C112.25 16.9947 109.63 15.1005 106.909 13.4266C101.485 10.0415 95.6781 7.51628 89.7014 5.84792C83.7129 4.22113 77.5699 3.38105 71.4009 3.42014C68.3433 3.4282 65.2312 3.58145 62.1706 3.90035C59.105 4.23353 56.0623 4.76773 53.0619 5.48744C41.0303 8.23351 29.7507 14.7097 20.8499 24.2893C18.607 26.6587 16.5111 29.2118 14.5481 31.8971C12.5763 34.5755 10.7429 37.3911 9.02244 40.3003C7.30134 43.2108 5.72356 46.2324 4.21279 49.3048C3.47695 50.8522 2.7349 52.4002 2.0518 53.9817C1.32402 55.5421 0.681243 57.1465 0 58.7361C1.02 55.4031 2.13494 52.0968 3.41429 48.8624C4.69922 45.6324 6.12746 42.4681 7.67919 39.3709C9.27123 36.3004 11.006 33.3148 12.8903 30.4403C14.769 27.5596 16.8642 24.8514 19.0922 22.2846C23.5376 17.1368 28.7146 12.7404 34.3618 9.30873C40.024 5.90748 46.1322 3.44991 52.398 1.96954C55.5343 1.24611 58.7023 0.719982 61.8814 0.402935C63.4716 0.270164 65.0649 0.121254 66.652 0.0778236C68.2341 -0.000972748 69.8429 -0.0239296 71.4424 0.0275688C77.8131 0.180817 84.2136 1.13877 90.3441 3.15148C96.4859 5.1158 102.352 8.10011 107.706 11.9208C110.37 13.8559 112.929 15.9586 115.322 18.2735C116.522 19.4244 117.679 20.6268 118.809 21.859C119.926 23.1067 121.001 24.3966 122.036 25.7225Z" fill="#00A77E"/>
</svg>
